<?xml version="1.0" encoding="utf-8"?>
<svg version="1.1" xmlns="http://www.w3.org/2000/svg" xmlns:xlink="http://www.w3.org/1999/xlink" width="16" height="16" viewBox="0 0 16 16">
  <rect width="16" height="16" id="icon-bound" fill="none" />
    <path d="M9.11118452,0.9822101 C11.1180892,0.958459749 13.0573945,1.70475517 14.5275596,3.06397175 L14.5719661,3.10534758 L12.2419127,5.43540099 C11.399255,4.63172748 10.2747118,4.19390535 9.11118452,4.21189804 C6.98204948,4.21189804 5.17378409,5.6483145 4.52904601,7.58252872 C4.1906035,8.58598107 4.18721908,9.67172838 4.51889274,10.6768266 L4.52904601,10.7072593 L4.53204479,10.7072593 C5.17978165,12.6384747 6.98504826,14.0748912 9.1141833,14.0748912 C10.2037307,14.0748912 11.1404445,13.7986152 11.8690403,13.310077 L11.8880564,13.2972069 L11.8880564,13.2952079 C12.7401003,12.7311371 13.3246855,11.8467037 13.5137846,10.8455878 L13.5193937,10.8152154 L9.11118452,10.8152154 L9.11118452,7.67249217 L16.8090573,7.67249217 C16.9050183,8.21827045 16.95,8.77604386 16.95,9.33081848 C16.95,11.7889799 16.0800246,13.8709357 14.5641219,15.2915338 L14.5193375,15.3331099 L14.5209868,15.3343795 C13.1820607,16.5693978 11.3493649,17.2900725 9.17711408,17.3043625 L9.11118452,17.3045791 C6.05629557,17.3045791 3.26004794,15.5998977 1.86014018,12.891776 L1.81814732,12.8094053 L1.78376868,12.740101 C0.671963668,10.4719559 0.672077118,7.81705899 1.78410903,5.54899279 L1.81814732,5.48038272 L1.86014018,5.39792294 C3.26004794,2.68689157 6.05629557,0.9822101 9.11118452,0.9822101 Z" id="Path"></path>
</svg>