<?xml version="1.0" encoding="UTF-8"?>
<svg width="365px" height="70px" viewBox="0 0 365 70" version="1.1" xmlns="http://www.w3.org/2000/svg" xmlns:xlink="http://www.w3.org/1999/xlink">
    <!-- Generator: Sketch 64 (93537) - https://sketch.com -->
    <title>Oceana_2Blue_RGB</title>
    <desc>Created with Sketch.</desc>
    <g id="Oceana_2Blue_RGB" stroke="none" stroke-width="1" fill="none" fill-rule="evenodd">
        <path d="M124.983822,58.0704891 L124.47161,57.5312592 C123.409955,56.5388362 121.98804,55.9265753 120.407129,55.9265753 C119.30824,55.9265753 118.289856,56.2297045 117.404304,56.7489258 C117.197004,56.9009906 116.989705,57.0280447 116.782405,57.167104 C116.61737,57.2801522 116.44026,57.4042051 116.275225,57.5062486 C116.207803,57.5462656 116.147424,57.5912848 116.086039,57.6283006 C115.274955,58.1075048 114.420598,58.492669 113.529009,58.7957982 C112.638426,59.0929249 111.668344,59.3030144 110.624802,59.4300686 C109.581259,59.5521206 108.42803,59.6121462 107.164106,59.6121462 C104.961296,59.6121462 102.898363,59.1899662 100.982351,58.3446059 C99.0542633,57.4952439 97.3757402,56.2597173 95.9296745,54.6340243 C94.4956845,53.0083314 93.3484925,51.0094795 92.5122499,48.6334667 C91.6760073,46.2564536 91.2543639,43.5412963 91.2543639,40.4799915 C91.2543639,37.5587464 91.6760073,34.9236232 92.5122499,32.574622 C93.3484925,30.2266212 94.5198359,28.2257684 96.0152107,26.5750648 C97.5156171,24.9223604 99.3038278,23.649818 101.391919,22.758438 C103.485041,21.8760619 105.791501,21.4298717 108.311298,21.4298717 C109.770445,21.4298717 111.039401,21.5389182 112.132252,21.7640142 C113.212022,21.9791058 114.16399,22.2432184 114.970043,22.5583527 C115.781128,22.8704858 116.483531,23.2106308 117.075241,23.5837898 C117.160777,23.635812 117.234238,23.6838325 117.31273,23.7318529 C117.587452,23.9019254 117.850099,24.0689966 118.10067,24.2240627 C118.917792,24.6512448 119.851647,24.8973497 120.840848,24.8973497 C122.653211,24.8973497 124.276387,24.0870043 125.356156,22.8104602 L125.801951,22.221209 L129,17.9473874 C127.876959,16.7758881 126.582846,15.7024305 125.130743,14.7350182 C124.740295,14.4769082 124.343809,14.2258012 123.934242,13.9887001 C123.794365,13.9036639 123.641406,13.8276314 123.495491,13.7465969 C122.500252,13.1913603 121.456709,12.6821432 120.345744,12.2389543 C118.618919,11.5376554 116.75121,10.9884213 114.761737,10.5972546 C112.772265,10.2000853 110.654991,10 108.396834,10 C103.752719,10 99.5121338,10.7523207 95.6670279,12.2599633 C91.8229284,13.758602 88.5151914,15.8604979 85.756899,18.5636501 C82.9915625,21.2698035 80.8440995,24.4821727 79.3064597,28.2127628 C77.7678136,31.9443533 77,36.0300948 77,40.4799915 C77,44.8508545 77.6702016,48.8975793 79.0196617,52.6291698 C80.3620776,56.3567586 82.2901653,59.5791321 84.8049309,62.2972906 C87.3247281,65.0144488 90.3829005,67.1473579 93.9945427,68.6850133 C97.6081975,70.2296717 101.69683,71 106.255409,71 C111.228587,71 115.531563,70.2056614 119.174401,68.6029783 C119.81542,68.3208581 120.431281,68.008725 121.036072,67.675583 C121.438596,67.4504871 121.841119,67.2263916 122.225529,66.9802867 C123.531718,66.1699413 124.728219,65.2295405 125.838178,64.1710893 C125.93579,64.0800505 126.03944,63.9950143 126.131014,63.9009742 C126.887758,63.1556565 127.602237,62.3603175 128.261369,61.4949487 L126.552657,59.7061862 L124.983822,58.0704891" id="Fill-1" fill="#1B2441"></path>
        <path d="M198.894364,47.0599179 C198.894364,47.0599179 206.56261,24.030336 206.997018,22.3559876 C207.461248,24.0031844 215.098678,47.0599179 215.098678,47.0599179 L198.894364,47.0599179 Z M215.647404,14.2115143 L215.346201,13.4251236 C214.411776,11.4038381 212.391829,10 210.040856,10 L199.956029,10 L177,70 L187.049041,70 C189.430829,70 191.473641,68.5599598 192.390172,66.4934216 L195.724278,56.5348194 L218.269757,56.5348194 L221.151562,65.150926 L221.694324,66.7619207 C222.664535,68.6786223 224.629809,70 226.909208,70 L237,70 L215.647404,14.2115143 L215.647404,14.2115143 Z" id="Fill-2" fill="#1B2441"></path>
        <path d="M320.900328,47.0599179 C320.900328,47.0599179 328.56261,24.030336 329.002982,22.3559876 C329.461248,24.0031844 337.104642,47.0599179 337.104642,47.0599179 L320.900328,47.0599179 Z M337.503264,13.8153021 L337.406839,13.5709377 C336.508201,11.4671918 334.446503,10 332.034892,10 L321.961993,10 L299,70 L309.066934,70 C311.400013,70 313.408032,68.6223079 314.347427,66.6241515 L314.812651,65.2524931 L317.724278,56.5348194 L340.275722,56.5348194 L343.194307,65.2524931 L343.651579,66.6241515 C344.591968,68.6223079 346.599987,70 348.933066,70 L359,70 L337.503264,13.8153021 L337.503264,13.8153021 Z" id="Fill-3" fill="#1B2441"></path>
        <path d="M281.818381,41.751278 C281.818381,42.7096288 281.849329,43.7333445 281.897249,44.8194084 C281.952157,45.9014498 282.037015,47.0176821 282.145833,48.1711221 L253.884117,12.1751446 L253.860157,12.147993 C252.788949,10.8517556 251.190623,10.0191067 249.386642,10.0040225 C249.362682,10.0040225 249.343713,10 249.313764,10 C249.301784,10 249.295794,10 249.276825,10 L242,10 L242,70 C242,70 245.774685,69.973854 249.384645,69.973854 C250.997946,69.973854 254.181619,69.6993212 254.181619,65.7402162 C254.181619,65.7040141 254.181619,37.83642 254.181619,37.83642 C254.181619,36.9615352 254.157659,36.0192743 254.102751,35.0166764 C254.041853,34.0160898 253.975963,32.9943853 253.897095,31.9515629 L281.740511,67.3864074 L281.982107,67.6941255 C282.151823,67.9113383 282.321539,68.1114556 282.496247,68.2985 C283.386757,69.1824353 284.561791,69.7777592 285.869603,69.9446912 C286.135158,69.9748596 286.407702,69.9909495 286.698216,69.9969832 C286.734156,69.9969832 286.771095,70 286.807034,70 L294,70 L294,10 C294,10 287.329161,10 285.459289,10 C281.529863,10 281.818381,12.9705858 281.818381,14.5473896 C281.818381,16.3826364 281.818381,41.751278 281.818381,41.751278" id="Fill-4" fill="#1B2441"></path>
        <path d="M169.61183,10 L134,10 L134,70 L172,70 L172,64.4319115 C171.658692,61.7247968 169.528729,59.58686 166.852672,59.2942261 L147.768087,59.2942261 L147.768087,45.0024302 L166.324386,45.0024302 L166.324386,34.7119752 L147.768087,34.7119752 L147.768087,20.7097964 L166.648877,20.7097964 C169.419906,20.5026397 171.651766,18.3274952 172,15.5540099 L172,10 L169.61183,10" id="Fill-5" fill="#1B2441"></path>
        <path d="M63.6725856,12.0821273 C60.6194526,8.98148926 56.9466838,6.53223727 52.6362607,4.74344639 C48.3388509,2.95768052 43.5609481,2.06530176 38.3155655,2.06530176 C36.2944916,2.06530176 34.3334793,2.200419 32.4395359,2.46964513 C24.5294189,0.417678146 9.41390815,-2.43188387 1.55284153,3.78048399 C-2.02282763,6.9113722 1.49177888,7.55973327 2.99732379,7.96407664 C6.16657591,8.81007187 12.4069795,11.2472238 10.0025121,15.4166997 C9.80831287,15.6687841 9.63213208,15.943052 9.45094616,16.2062281 C9.43192664,16.2314365 9.41991431,16.2586616 9.39588966,16.2818534 C9.35284549,16.3342869 9.34183419,16.3655454 9.31680851,16.4058789 C7.9143694,18.4417125 6.7181419,20.6429134 5.77217119,23.0397319 C4.08443933,27.2686997 3.24657956,31.836469 3.24657956,36.7460647 C3.24657956,41.6566687 4.08443933,46.218388 5.77217119,50.4463475 C6.39681216,52.0516209 7.1746103,53.5530356 8.0174752,55 C7.88433859,53.6810944 7.81726976,52.3450471 7.81726976,50.9908498 C7.81726976,28.9253984 25.6345529,10.9749727 47.5370281,10.9749727 C54.6092853,10.9749727 61.2380874,12.8676223 67,16.1457278 C65.9979718,14.7078384 64.8988439,13.3375076 63.6725856,12.0821273" id="Fill-6" fill="#3F7AB1"></path>
        <path d="M71.2582188,29.440357 C70.8512415,27.4300514 70.2678406,25.4847235 69.508016,23.6053727 C62.8991462,17.166597 53.5206255,16.0139952 47.7267126,16 C49.5500911,16.9546702 51.1920339,18.2312292 52.5653316,19.8946546 C55.9885518,24.0412221 57.7086823,28.4397026 57.7086823,36.8747887 C57.7086823,42.4648576 56.3163389,48.3108381 53.3682597,52.2914629 C49.313523,57.7715698 43.5927859,60.0657773 37.21046,60.0657773 C31.8365557,60.0657773 26.9919223,58.9871499 22.1523009,54.1408241 C18.0133621,49.9962558 16.7182521,43.6074629 16.7182521,36.8747887 C16.7182521,35.8961268 16.7723821,34.9104673 16.8575867,33.9348043 C9.0648741,44.458169 10.9734572,57.6716044 11.8976765,60.8605027 C12.0129533,60.975463 12.1222157,61.0944219 12.2384949,61.2063832 C15.2717787,64.2643269 18.9255525,66.6594994 23.1988139,68.3988986 C27.4720753,70.1293008 32.2014318,71 37.3928981,71 C42.5783499,71 47.3077065,70.1293008 51.5569101,68.3988986 C55.824157,66.6594994 59.4588851,64.2643269 62.48014,61.2063832 C65.5013949,58.14744 67.8420154,54.5466839 69.508016,50.4091132 C71.1730142,46.2685436 72,41.7940893 72,36.9847507 C72,34.3716534 71.7564151,31.8555226 71.2582188,29.440357" id="Fill-7" fill="#1B2441"></path>
    </g>
</svg>