<svg xmlns="http://www.w3.org/2000/svg" xmlns:xlink="http://www.w3.org/1999/xlink" width="360" height="78" version="1.1" viewBox="0 0 360 78"><title>Oceana_English_SideTagline_2Blue_RGB</title><g id="Oceana_English_SideTagline_2Blue_RGB" fill="none" fill-rule="evenodd" stroke="none" stroke-width="1"><path id="Fill-1" fill="#1B2441" d="M123.966,61.075 L123.459,60.538 C122.409,59.552 121.003,58.943 119.441,58.943 C118.355,58.943 117.348,59.244 116.473,59.761 C116.268,59.911 116.063,60.038 115.857,60.177 C115.695,60.288 115.52,60.412 115.357,60.514 C115.29,60.554 115.23,60.599 115.17,60.634 C114.367,61.112 113.523,61.495 112.642,61.796 C111.761,62.092 110.802,62.3 109.77,62.426 C108.739,62.548 107.598,62.608 106.35,62.608 C104.172,62.608 102.133,62.188 100.238,61.347 C98.332,60.502 96.673,59.274 95.243,57.658 C93.826,56.041 92.692,54.053 91.865,51.691 C91.038,49.327 90.622,46.627 90.622,43.583 C90.622,40.678 91.038,38.057 91.865,35.722 C92.692,33.387 93.85,31.397 95.327,29.756 C96.811,28.112 98.579,26.847 100.643,25.961 C102.712,25.083 104.992,24.64 107.484,24.64 C108.925,24.64 110.18,24.748 111.261,24.972 C112.328,25.186 113.27,25.449 114.066,25.761 C114.868,26.073 115.562,26.411 116.147,26.781 C116.232,26.833 116.304,26.881 116.382,26.929 C116.654,27.098 116.913,27.265 117.161,27.418 C117.969,27.843 118.892,28.088 119.869,28.088 C121.661,28.088 123.266,27.282 124.334,26.012 L124.774,25.427 L127.935,21.177 C126.825,20.012 125.546,18.945 124.11,17.982 C123.725,17.726 123.332,17.476 122.928,17.241 C122.789,17.156 122.638,17.08 122.494,16.999 C121.51,16.447 120.479,15.941 119.38,15.501 C117.673,14.803 115.827,14.257 113.861,13.868 C111.894,13.474 109.8,13.274 107.568,13.274 C102.977,13.274 98.785,14.022 94.984,15.521 C91.183,17.011 87.913,19.101 85.186,21.789 C82.453,24.48 80.33,27.675 78.81,31.384 C77.289,35.095 76.529,39.158 76.529,43.583 C76.529,47.93 77.193,51.953 78.526,55.664 C79.853,59.371 81.76,62.575 84.245,65.278 C86.737,67.98 89.76,70.1 93.331,71.63 C96.902,73.166 100.944,73.932 105.451,73.932 C110.368,73.932 114.621,73.141 118.222,71.548 C118.856,71.268 119.465,70.957 120.062,70.625 C120.461,70.402 120.859,70.179 121.239,69.934 C122.53,69.129 123.712,68.194 124.81,67.141 C124.907,67.051 125.009,66.966 125.1,66.873 C125.848,66.131 126.553,65.341 127.205,64.48 L125.516,62.701 L123.966,61.075"/><path id="Fill-2" fill="#1B2441" d="M197.434,50.955 C197.434,50.955 205.108,28.173 205.542,26.516 C206.006,28.145 213.65,50.955 213.65,50.955 L197.434,50.955 Z M214.199,18.459 L213.897,17.681 C212.962,15.681 210.941,14.293 208.588,14.293 L198.496,14.293 L175.522,73.648 L185.579,73.648 C187.962,73.648 190.007,72.224 190.924,70.179 L194.26,60.327 L216.823,60.327 L219.707,68.851 L220.25,70.444 C221.221,72.341 223.188,73.648 225.468,73.648 L235.567,73.648 L214.199,18.459 L214.199,18.459 Z"/><path id="Fill-3" fill="#1B2441" d="M319.074,50.955 C319.074,50.955 326.742,28.173 327.182,26.516 C327.641,28.145 335.29,50.955 335.29,50.955 L319.074,50.955 Z M335.689,18.067 L335.592,17.826 C334.693,15.744 332.63,14.293 330.217,14.293 L320.136,14.293 L297.157,73.648 L307.232,73.648 C309.566,73.648 311.575,72.285 312.516,70.308 L312.981,68.951 L315.895,60.327 L338.464,60.327 L341.384,68.951 L341.842,70.308 C342.783,72.285 344.792,73.648 347.127,73.648 L357.202,73.648 L335.689,18.067 L335.689,18.067 Z"/><path id="Fill-4" fill="#1B2441" d="M280.047,45.703 C280.047,46.651 280.078,47.664 280.126,48.738 C280.18,49.809 280.265,50.913 280.374,52.053 L252.212,16.444 L252.188,16.417 C251.12,15.135 249.527,14.311 247.73,14.297 C247.705,14.297 247.687,14.293 247.657,14.293 C247.645,14.293 247.639,14.293 247.621,14.293 L240.37,14.293 L240.37,73.648 C240.37,73.648 244.13,73.622 247.728,73.622 C249.335,73.622 252.508,73.351 252.508,69.434 C252.508,69.399 252.508,41.83 252.508,41.83 C252.508,40.965 252.484,40.033 252.429,39.04 C252.369,38.05 252.303,37.04 252.224,36.009 L279.969,71.063 L280.21,71.367 C280.379,71.582 280.549,71.78 280.723,71.965 C281.61,72.839 282.781,73.428 284.084,73.593 C284.349,73.623 284.62,73.639 284.91,73.645 C284.946,73.645 284.983,73.648 285.019,73.648 L292.186,73.648 L292.186,14.293 C292.186,14.293 285.538,14.293 283.676,14.293 C279.759,14.293 280.047,17.231 280.047,18.792 C280.047,20.607 280.047,45.703 280.047,45.703"/><path id="Fill-5" fill="#1B2441" d="M169.29,14.293 L133.48,14.293 L133.48,73.648 L171.691,73.648 L171.691,68.14 C171.348,65.461 169.206,63.347 166.515,63.057 L147.325,63.057 L147.325,48.919 L165.984,48.919 L165.984,38.739 L147.325,38.739 L147.325,24.888 L166.31,24.888 C169.097,24.682 171.341,22.531 171.691,19.787 L171.691,14.293 L169.29,14.293"/><path id="Fill-6" fill="#3F7AB1" d="M62.811,15.69 C59.776,12.632 56.126,10.215 51.843,8.45 C47.572,6.689 42.824,5.808 37.611,5.808 C35.602,5.808 33.654,5.941 31.772,6.207 C23.911,4.183 8.889,1.371 1.076,7.501 C-2.477,10.589 1.016,11.229 2.512,11.628 C5.661,12.462 11.863,14.867 9.474,18.981 C9.281,19.229 9.106,19.5 8.925,19.76 C8.907,19.784 8.895,19.811 8.871,19.834 C8.828,19.886 8.817,19.916 8.792,19.956 C7.399,21.964 6.21,24.136 5.269,26.501 C3.592,30.673 2.76,35.18 2.76,40.024 C2.76,44.868 3.592,49.368 5.269,53.54 C5.891,55.123 6.663,56.605 7.501,58.032 C7.369,56.731 7.302,55.413 7.302,54.077 C7.302,32.308 25.009,14.598 46.775,14.598 C53.804,14.598 60.391,16.466 66.117,19.699 C65.121,18.281 64.029,16.929 62.811,15.69"/><path id="Fill-7" fill="#1B2441" d="M70.979,33.107 C70.575,31.107 69.996,29.171 69.242,27.3 C62.684,20.893 53.375,19.747 47.626,19.732 C49.436,20.682 51.065,21.953 52.428,23.608 C55.825,27.735 57.532,32.112 57.532,40.506 C57.532,46.069 56.15,51.887 53.224,55.848 C49.2,61.301 43.524,63.585 37.189,63.585 C31.856,63.585 27.048,62.511 22.246,57.688 C18.137,53.564 16.852,47.206 16.852,40.506 C16.852,39.532 16.906,38.551 16.991,37.58 C9.257,48.053 11.151,61.202 12.068,64.375 C12.183,64.49 12.291,64.608 12.406,64.72 C15.417,67.762 19.042,70.146 23.283,71.877 C27.524,73.599 32.218,74.465 37.37,74.465 C42.516,74.465 47.209,73.599 51.427,71.877 C55.662,70.146 59.269,67.762 62.268,64.72 C65.266,61.676 67.589,58.092 69.242,53.974 C70.894,49.854 71.715,45.402 71.715,40.615 C71.715,38.015 71.474,35.511 70.979,33.107"/></g></svg>