<svg xmlns="http://www.w3.org/2000/svg" xmlns:xlink="http://www.w3.org/1999/xlink" width="363" height="75" version="1.1" viewBox="0 0 363 75"><title>Oceana_White</title><g id="Oceana_White" fill="none" fill-rule="evenodd" stroke="none" stroke-width="1"><path id="Fill-1" fill="#FFFFFE" d="M127.699,60.636 L127.189,60.097 C126.135,59.105 124.722,58.493 123.151,58.493 C122.059,58.493 121.047,58.796 120.167,59.315 C119.961,59.467 119.755,59.594 119.549,59.733 C119.385,59.846 119.209,59.97 119.045,60.072 C118.978,60.112 118.918,60.157 118.857,60.194 C118.051,60.673 117.202,61.058 116.316,61.361 C115.431,61.658 114.467,61.868 113.43,61.995 C112.393,62.117 111.247,62.177 109.991,62.177 C107.802,62.177 105.752,61.755 103.848,60.91 C101.932,60.061 100.264,58.826 98.827,57.201 C97.402,55.576 96.262,53.578 95.431,51.203 C94.6,48.827 94.181,46.113 94.181,43.053 C94.181,40.133 94.6,37.499 95.431,35.151 C96.262,32.804 97.426,30.804 98.912,29.154 C100.403,27.502 102.18,26.23 104.255,25.339 C106.335,24.457 108.627,24.011 111.131,24.011 C112.581,24.011 113.842,24.12 114.928,24.345 C116.001,24.56 116.947,24.824 117.748,25.139 C118.554,25.451 119.252,25.791 119.84,26.164 C119.925,26.216 119.998,26.264 120.076,26.312 C120.349,26.482 120.61,26.649 120.859,26.804 C121.671,27.231 122.599,27.477 123.582,27.477 C125.383,27.477 126.996,26.667 128.069,25.391 L128.512,24.802 L131.69,20.53 C130.574,19.359 129.288,18.286 127.845,17.319 C127.457,17.061 127.063,16.81 126.656,16.573 C126.517,16.488 126.365,16.412 126.22,16.331 C125.231,15.776 124.194,15.267 123.09,14.824 C121.374,14.123 119.518,13.574 117.541,13.183 C115.564,12.786 113.46,12.586 111.216,12.586 C106.601,12.586 102.387,13.338 98.566,14.845 C94.746,16.343 91.459,18.444 88.718,21.146 C85.97,23.851 83.836,27.062 82.308,30.791 C80.779,34.521 80.016,38.605 80.016,43.053 C80.016,47.422 80.682,51.467 82.023,55.197 C83.357,58.923 85.273,62.144 87.772,64.861 C90.276,67.577 93.315,69.709 96.904,71.246 C100.495,72.79 104.557,73.56 109.088,73.56 C114.03,73.56 118.306,72.766 121.926,71.164 C122.563,70.882 123.175,70.57 123.776,70.237 C124.176,70.012 124.576,69.788 124.958,69.542 C126.256,68.732 127.445,67.792 128.548,66.734 C128.645,66.643 128.748,66.558 128.839,66.464 C129.591,65.719 130.301,64.924 130.956,64.059 L129.258,62.271 L127.699,60.636"/><path id="Fill-2" fill="#FFFFFE" d="M201.55,50.463 C201.55,50.463 209.264,27.562 209.701,25.897 C210.168,27.535 217.851,50.463 217.851,50.463 L201.55,50.463 Z M218.403,17.798 L218.1,17.016 C217.16,15.006 215.128,13.61 212.763,13.61 L202.618,13.61 L179.525,73.275 L189.634,73.275 C192.03,73.275 194.085,71.843 195.007,69.788 L198.361,59.885 L221.041,59.885 L223.94,68.453 L224.486,70.055 C225.462,71.961 227.439,73.275 229.732,73.275 L239.883,73.275 L218.403,17.798 L218.403,17.798 Z"/><path id="Fill-3" fill="#FFFFFE" d="M323.825,50.463 C323.825,50.463 331.533,27.562 331.976,25.897 C332.437,27.535 340.126,50.463 340.126,50.463 L323.825,50.463 Z M340.527,17.404 L340.43,17.161 C339.526,15.069 337.452,13.61 335.026,13.61 L324.893,13.61 L301.794,73.275 L311.921,73.275 C314.268,73.275 316.288,71.905 317.233,69.918 L317.701,68.554 L320.63,59.885 L343.316,59.885 L346.252,68.554 L346.712,69.918 C347.658,71.905 349.678,73.275 352.025,73.275 L362.152,73.275 L340.527,17.404 L340.527,17.404 Z"/><path id="Fill-4" fill="#FFFFFE" d="M284.595,45.184 C284.595,46.137 284.626,47.155 284.674,48.235 C284.729,49.311 284.814,50.421 284.923,51.568 L256.614,15.773 L256.59,15.746 C255.517,14.457 253.916,13.629 252.109,13.614 C252.085,13.614 252.066,13.61 252.036,13.61 C252.024,13.61 252.018,13.61 251.999,13.61 L244.71,13.61 L244.71,73.275 C244.71,73.275 248.491,73.249 252.107,73.249 C253.723,73.249 256.912,72.976 256.912,69.039 C256.912,69.003 256.912,41.291 256.912,41.291 C256.912,40.421 256.888,39.484 256.833,38.487 C256.772,37.492 256.706,36.476 256.627,35.439 L284.517,70.676 L284.759,70.982 C284.929,71.198 285.099,71.397 285.274,71.583 C286.166,72.462 287.343,73.054 288.653,73.22 C288.919,73.25 289.192,73.266 289.483,73.272 C289.519,73.272 289.556,73.275 289.592,73.275 L296.797,73.275 L296.797,13.61 C296.797,13.61 290.115,13.61 288.242,13.61 C284.306,13.61 284.595,16.564 284.595,18.132 C284.595,19.957 284.595,45.184 284.595,45.184"/><path id="Fill-5" fill="#FFFFFE" d="M173.26,13.61 L137.263,13.61 L137.263,73.275 L175.674,73.275 L175.674,67.738 C175.329,65.046 173.176,62.92 170.471,62.629 L151.18,62.629 L151.18,48.417 L169.937,48.417 L169.937,38.184 L151.18,38.184 L151.18,24.26 L170.265,24.26 C173.066,24.054 175.322,21.891 175.674,19.133 L175.674,13.61 L173.26,13.61"/><path id="Fill-6" fill="#FFFFFE" d="M66.225,15.015 C63.175,11.94 59.506,9.511 55.2,7.737 C50.907,5.966 46.134,5.081 40.894,5.081 C38.875,5.081 36.916,5.215 35.024,5.482 C27.122,3.447 12.022,0.621 4.169,6.782 C0.597,9.887 4.108,10.53 5.612,10.931 C8.778,11.77 15.012,14.187 12.61,18.322 C12.416,18.572 12.24,18.844 12.059,19.105 C12.04,19.13 12.028,19.157 12.004,19.18 C11.961,19.232 11.95,19.263 11.925,19.303 C10.524,21.322 9.329,23.505 8.384,25.882 C6.697,30.076 5.861,34.606 5.861,39.475 C5.861,44.345 6.697,48.869 8.384,53.062 C9.008,54.654 9.784,56.143 10.627,57.578 C10.494,56.27 10.427,54.945 10.427,53.602 C10.427,31.719 28.226,13.917 50.106,13.917 C57.171,13.917 63.793,15.794 69.549,19.045 C68.548,17.619 67.45,16.26 66.225,15.015"/><path id="Fill-7" fill="#FFFFFE" d="M74.436,32.523 C74.03,30.512 73.448,28.566 72.69,26.686 C66.097,20.245 56.74,19.092 50.961,19.078 C52.78,20.033 54.418,21.31 55.788,22.974 C59.203,27.122 60.919,31.522 60.919,39.96 C60.919,45.552 59.53,51.4 56.589,55.382 C52.544,60.864 46.837,63.159 40.47,63.159 C35.109,63.159 30.276,62.08 25.448,57.232 C21.319,53.086 20.027,46.695 20.027,39.96 C20.027,38.981 20.081,37.995 20.166,37.019 C12.392,47.546 14.296,60.764 15.218,63.954 C15.333,64.069 15.442,64.188 15.557,64.3 C18.584,67.359 22.228,69.755 26.492,71.495 C30.755,73.226 35.473,74.097 40.652,74.097 C45.825,74.097 50.542,73.226 54.782,71.495 C59.039,69.755 62.665,67.359 65.679,64.3 C68.693,61.24 71.028,57.638 72.69,53.499 C74.351,49.357 75.176,44.881 75.176,40.07 C75.176,37.456 74.933,34.939 74.436,32.523"/></g></svg>